<?xml version="1.0" encoding="UTF-8" standalone="no"?>
<svg
   xmlns:inkstitch="http://inkstitch.org/namespace"
   xmlns:dc="http://purl.org/dc/elements/1.1/"
   xmlns:cc="http://creativecommons.org/ns#"
   xmlns:rdf="http://www.w3.org/1999/02/22-rdf-syntax-ns#"
   xmlns:svg="http://www.w3.org/2000/svg"
   xmlns="http://www.w3.org/2000/svg"
   xmlns:sodipodi="http://sodipodi.sourceforge.net/DTD/sodipodi-0.dtd"
   xmlns:inkscape="http://www.inkscape.org/namespaces/inkscape"
   width="100mm"
   height="100mm"
   viewBox="0 0 100 100"
   version="1.1"
   id="svg8"
   inkscape:version="1.0.2 (1.0.2+r75+1)"
   sodipodi:docname="kube-badge-5cm-final.svg">
  <defs
     id="defs2">
    <filter
       inkscape:collect="always"
       style="color-interpolation-filters:sRGB"
       id="filter3639"
       x="-9.4473504e-05"
       width="1.0001889"
       y="-5.5082755e-05"
       height="1.0001102">
      <feGaussianBlur
         inkscape:collect="always"
         stdDeviation="0.00027911976"
         id="feGaussianBlur3641" />
    </filter>
  </defs>
  <sodipodi:namedview
     id="base"
     pagecolor="#ffffff"
     bordercolor="#666666"
     borderopacity="1.0"
     inkscape:pageopacity="0.0"
     inkscape:pageshadow="2"
     inkscape:zoom="4.9130363"
     inkscape:cx="199.54518"
     inkscape:cy="217.26761"
     inkscape:document-units="mm"
     inkscape:current-layer="svg8"
     inkscape:document-rotation="0"
     showgrid="true"
     fit-margin-top="0"
     fit-margin-left="0"
     fit-margin-right="0"
     fit-margin-bottom="0"
     objecttolerance="10"
     guidetolerance="10"
     inkscape:window-width="1920"
     inkscape:window-height="1016"
     inkscape:window-x="0"
     inkscape:window-y="27"
     inkscape:window-maximized="1"
     inkscape:object-nodes="true"
     inkscape:snap-nodes="true"
     inkscape:snap-to-guides="false"
     inkscape:snap-others="true"
     inkscape:snap-bbox="true"
     inkscape:snap-intersection-paths="true"
     inkscape:snap-grids="false"
     inkscape:object-paths="true"
     inkscape:snap-global="true">
    <inkscape:grid
       type="xygrid"
       id="grid833"
       units="mm"
       spacingx="0.99999999"
       spacingy="0.99999999"
       empspacing="10" />
  </sodipodi:namedview>
  <metadata
     id="metadata5">
    <rdf:RDF>
      <cc:Work
         rdf:about="">
        <dc:format>image/svg+xml</dc:format>
        <dc:type
           rdf:resource="http://purl.org/dc/dcmitype/StillImage" />
        <dc:title></dc:title>
      </cc:Work>
    </rdf:RDF>
  </metadata>
  <rect
     style="display:none;opacity:1;fill:#000000;fill-opacity:1;stroke:none;stroke-width:0.7;stroke-linecap:round;stroke-linejoin:round;paint-order:stroke fill markers"
     id="rect872"
     width="79.179939"
     height="78.480606"
     x="10.843768"
     y="9.9970045"
     inkscape:label="fond-noir" />
  <path
     d="M 68.898418,37.706999 C 68.636476,36.868786 68.007816,36.187737 67.221991,35.76863 l -15.97844,-7.648695 c -0.419106,-0.209553 -0.8906,-0.261941 -1.309707,-0.261941 -0.419106,0 -0.890601,0 -1.309708,0.104776 l -15.978443,7.701084 c -0.785822,0.366718 -1.362097,1.047767 -1.571642,1.938368 l -3.929125,17.235759 c -0.157164,0.890602 0.05234,1.781203 0.576265,2.51464 l 11.05394,13.673352 c 0.62866,0.628661 1.519261,1.047767 2.409863,1.100155 h 17.602477 c 0.94299,0.104777 1.833591,-0.31433 2.409863,-1.100155 L 72.25127,57.352621 c 0.523884,-0.733437 0.733436,-1.624038 0.62866,-2.51464 z"
     id="path10349"
     style="display:inline;opacity:1;fill:#0a4f94;stroke:none;stroke-width:0.15;stroke-miterlimit:4;stroke-dasharray:none;paint-order:stroke fill markers"
     inkstitch:row_spacing_mm="0.22"
     inkstitch:running_stitch_length_mm="1"
     inkstitch:angle="51.43"
     inkscape:label="fond-bleu"
     sodipodi:insensitive="true"
     inkstitch:max_stitch_length_mm="2,6" />
  <path
     id="path2280-5-3"
     style="display:inline;opacity:1;fill:none;stroke:#ffffff;stroke-width:0.264583px;stroke-linecap:butt;stroke-linejoin:miter;stroke-opacity:1"
     d="m 29.336764,57.160489 -3.385365,2.033023 m 3.759702,-1.553885 -3.069704,2.261801 m 2.185567,-4.046547 -4.492121,-0.0076 m 4.641708,0.950897 -3.494231,1.7729 M 67.555263,39.19162 71.697339,38.081754 M 35.859043,71.748242 39.2541,69.003577 m 3.228014,5.774883 v -4.36573 m 15.025608,4.36573 v -4.36573 m 6.792792,1.254049 -3.395058,-2.744665 m 12.71356,-9.012746 -3.395058,-2.744662 m 4.815294,-3.76646 -4.252387,0.98832 M 67.65299,33.099815 65.768002,37.037633 m -12.60547,-10.857782 -1.884987,3.937818 m -1.364797,-4.785695 -0.04971,4.239624 m -3.472629,-3.434476 1.895473,3.932783 m -15.783497,2.743413 1.895473,3.932783 m -6.282925,1.407064 4.256529,0.970332 m -7.495113,13.932742 4.256531,0.970332 m -2.818856,4.62606 10.984682,13.587681 0.201899,0.25357 0.105489,0.09694 0.527478,0.438869 0.101833,0.07741 0.108238,0.06817 0.602712,0.343571 0.113236,0.05814 0.117883,0.04802 0.652869,0.233228 0.128934,0.03943 0.132027,0.02732 0.677946,0.107836 0.113945,0.01355 0.114657,0.0045 h 17.944842 l 0.326929,0.01402 0.198639,-0.0051 0.349945,-0.03291 0.195546,-0.03194 0.33866,-0.07931 0.187349,-0.05742 0.324241,-0.123825 0.175017,-0.08049 0.306686,-0.166454 0.159617,-0.100547 0.285996,-0.207208 0.142126,-0.11739 0.262173,-0.246081 0.123332,-0.131022 0.235215,-0.283069 0.01241,-0.01516 11.28852,-13.963529 0.0675,-0.0905 0.0603,-0.09547 0.34107,-0.589337 0.0634,-0.12269 0.0515,-0.128151 0.22069,-0.634478 0.0383,-0.128947 0.0262,-0.131932 0.10031,-0.664571 0.0137,-0.129717 0.002,-0.130421 -0.02,-0.679619 -0.0115,-0.144176 -0.0257,-0.142325 -4.066011,-17.494537 -0.08465,-0.254807 -0.267499,-0.610234 -0.06848,-0.136313 -0.08238,-0.128397 -0.387876,-0.540017 -0.08705,-0.109654 -0.09719,-0.100779 -0.488187,-0.459766 -0.09871,-0.08496 -0.10591,-0.07579 -0.568441,-0.369485 -0.164761,-0.09247 -16.317534,-7.811017 -0.08668,-0.03808 -0.329361,-0.132079 -0.200186,-0.06393 -0.339391,-0.08192 -0.112001,-0.02242 -0.113411,-0.01357 -0.668752,-0.0535 -0.145147,-0.0043 -0.66875,0.01337 -0.172667,0.01376 -0.668752,0.09362 -0.147592,0.0285 -0.143864,0.04358 -0.138602,0.05818 -16.31754,7.864517 -0.123174,0.06686 -0.559241,0.339391 -0.134538,0.09235 -0.123352,0.106831 -0.463946,0.449736 -0.11303,0.122912 -0.09821,0.135048 -0.353599,0.550047 -0.08189,0.144997 -0.06478,0.1534 -0.228208,0.640328 -0.04805,0.165091 -4.012508,17.601538 -0.02016,0.106672 -0.01215,0.107876 -0.051,0.679618 -0.0036,0.146328 0.01112,0.145949 0.08442,0.664572 0.02554,0.1433 0.03973,0.140034 0.214832,0.634478 0.05261,0.133357 0.06548,0.127535 0.340245,0.589337 0.320934,0.406988 m 2.557774,-1.415981 10.855499,13.427889 0.174218,0.05517 0.380356,0.216818 0.405275,0.144777 0.430778,0.06852 h 17.861028 l 0.06236,0.0013 0.258601,0.01109 0.151937,-0.01429 0.146364,-0.03428 0.142325,-0.05435 0.138771,-0.07532 0.134662,-0.09757 0.129109,-0.121182 0.171344,-0.206205 11.211212,-13.867901 0.214958,-0.371432 0.130831,-0.376134 0.06065,-0.40178 -0.01193,-0.40374 -3.936976,-17.052184 -0.01162,-0.04613 -0.206002,-0.469942 -0.216553,-0.301492 -0.290814,-0.273886 -0.379542,-0.2467 -16.189426,-7.749692 -0.187619,-0.07524 -0.125692,-0.03034 -0.482166,-0.03857 -0.509325,0.01019 -0.357623,0.05007 -16.049489,7.735328 -0.359102,0.217929 -0.225732,0.218818 -0.172365,0.268125 -0.143116,0.401577 -3.969189,17.411503 -0.03186,0.424619 0.04749,0.373871 0.12183,0.359804 0.268303,0.464727 0.353663,0.438798"
     inkstitch:satin_column="True"
     inkstitch:zigzag_underlay="True"
     inkstitch:zigzag_underlay_spacing_mm="2,8"
     inkstitch:zigzag_spacing_mm="0.28"
     inkscape:label="border"
     inkstitch:contour_underlay="True" />
  <path
     id="path2462"
     style="display:inline;opacity:1;fill:none;stroke:#ffffff;stroke-width:0.15;stroke-linecap:butt;stroke-linejoin:miter;stroke-miterlimit:4;stroke-dasharray:none;stroke-opacity:1"
     d="m 36.749641,52.421579 c 0,0 0.713185,3.124458 0.713185,3.124458 M 35.603599,52.62915 c 0,0 0.713185,3.124458 0.713185,3.124458 m -2.10513,-2.826316 c 0,0 0.713186,3.124458 0.713186,3.124458 m -2.330467,-2.900856 c 0,0 0.713185,3.124458 0.713185,3.124458 m -0.715798,-1.82994 c 0.107778,-0.823798 0.87866,-0.960428 1.573173,-0.917448 1.106269,-0.09265 1.590114,-0.251807 2.321513,-0.390797 0.173551,-0.09563 0.367983,-0.168861 0.401233,-0.415001 0.318263,-0.06085 0.400358,-0.08516 0.436758,-0.102402 m -4.570828,2.579417 c 0.208418,0.245328 0.630533,0.823265 2.258942,-0.03477 0.548428,-0.146329 0.832288,-0.269858 1.870897,-0.478702 0.241166,-0.0087 0.394867,0.07218 0.477457,0.225808 0.148282,-0.0194 0.337826,0.01087 0.440229,-0.06376"
     inkstitch:satin_column="True"
     inkstitch:zigzag_spacing_mm="0,28"
     inkstitch:center_walk_underlay="False"
     sodipodi:nodetypes="cccccccccccccccccc" />
  <path
     style="display:inline;opacity:1;fill:none;stroke:#ffffff;stroke-width:0.264583;stroke-linecap:butt;stroke-linejoin:miter;stroke-miterlimit:4;stroke-dasharray:0.264583, 0.264583;stroke-dashoffset:0;stroke-opacity:1;filter:url(#filter3639)"
     d="m 37.932737,54.7923 1.08929,-0.229 c 0.888918,2.604447 2.620418,4.946546 5.971419,6.784396 l -2.718192,5.429966"
     id="path3501"
     sodipodi:nodetypes="cccc" />
  <path
     id="path2475"
     style="display:inline;opacity:1;fill:none;stroke:#ffffff;stroke-width:0.15;stroke-linecap:butt;stroke-linejoin:miter;stroke-miterlimit:4;stroke-dasharray:none;stroke-opacity:1"
     d="m 41.187959,65.865065 2.720819,1.310204 m -2.129744,-2.421602 2.720819,1.310204 m -2.191652,-2.368538 2.720819,1.310204 m -2.103212,-2.897705 2.720819,1.310204 m -3.701704,3.176085 c -0.276154,-0.348167 -0.377555,-0.716367 -0.114731,-1.126323 0.181272,-0.266636 0.372503,-0.520696 0.561911,-0.777057 0.454019,-0.576201 0.695084,-1.15556 1.012743,-1.733783 0.137387,-0.268956 0.04707,-0.470234 -0.09397,-0.656439 0.09735,-0.128824 0.17768,-0.266924 0.22085,-0.425274 m -0.962829,5.099483 c 0.559464,0.01304 0.931429,-0.247142 1.124341,-0.768234 0.44401,-1.100451 0.620081,-1.781755 1.044065,-2.530595 0.120451,-0.325483 0.326446,-0.348763 0.493786,-0.385243 0.08393,-0.170224 0.174629,-0.358018 0.231089,-0.456948"
     inkstitch:satin_column="True"
     inkstitch:zigzag_spacing_mm="0,28"
     inkstitch:center_walk_underlay="False"
     sodipodi:nodetypes="ccccccccccccccccccc"
     sodipodi:insensitive="true" />
  <path
     style="display:inline;opacity:1;fill:none;stroke:#ffffff;stroke-width:0.264583;stroke-linecap:butt;stroke-linejoin:miter;stroke-miterlimit:4;stroke-dasharray:0.264583, 0.264583;stroke-dashoffset:0;stroke-opacity:1"
     d="m 45.46487,62.763166 0.504118,-1.034396 c 2.935201,0.894489 5.935529,1.049154 9.065554,-0.269534 l 2.711286,5.373153"
     id="path3643"
     sodipodi:nodetypes="cccc" />
  <path
     id="path2478"
     style="display:inline;opacity:1;fill:none;stroke:#ffffff;stroke-width:0.15;stroke-linecap:butt;stroke-linejoin:miter;stroke-miterlimit:4;stroke-dasharray:none;stroke-opacity:1"
     d="m 58.442269,66.395482 c 0,0 -1.475924,0.710822 -1.475924,0.710822 m -0.15329,-4.988412 c 0,0 -2.25786,1.08741 -2.25786,1.08741 m 2.566928,-0.148546 c 0,0 -2.034955,0.980058 -2.034955,0.980058 m 2.887067,0.475179 c 0,0 -2.208082,1.063438 -2.208082,1.063438 m 2.758198,-0.06194 c 0,0 -2.414901,1.163046 -2.414901,1.163046 m 1.463371,0.294653 c -0.734882,0.178853 -1.532675,-0.372355 -1.594735,-1.606758 -0.242719,-0.744675 -0.47375,-1.290892 -0.75074,-1.843667 -0.112344,-0.168611 -0.282908,-0.251001 -0.418588,-0.254801 -0.118137,-0.229574 -0.204801,-0.285246 -0.324553,-0.428338 m 3.455338,3.965335 c 0.442948,-0.465743 0.718408,-0.895966 -0.418982,-2.3309 -0.341958,-0.470847 -0.64932,-1.062094 -0.949392,-1.678931 -0.01781,-0.145234 -0.05132,-0.290853 0.105034,-0.516973 -0.06206,-0.110367 -0.144149,-0.320922 -0.124929,-0.456168"
     sodipodi:nodetypes="cccccccccccccccccccc"
     inkstitch:satin_column="True"
     inkstitch:zigzag_spacing_mm="0,28"
     inkstitch:center_walk_underlay="False" />
  <path
     style="display:inline;opacity:1;fill:none;stroke:#ffffff;stroke-width:0.264583;stroke-linecap:butt;stroke-linejoin:miter;stroke-miterlimit:4;stroke-dasharray:0.264583, 0.264583;stroke-dashoffset:0;stroke-opacity:1"
     d="m 56.530798,61.837485 -0.61336,-0.843058 c 3.238375,-2.470863 4.979215,-5.073537 5.310528,-7.5425 l 6.087613,1.441658"
     id="path3645"
     sodipodi:nodetypes="cccc" />
  <path
     id="path2482"
     style="display:inline;opacity:1;fill:none;stroke:#ffffff;stroke-width:0.15;stroke-linecap:butt;stroke-linejoin:miter;stroke-miterlimit:4;stroke-dasharray:none;stroke-opacity:1"
     d="m 66.560802,56.182221 0.671871,-2.944161 m -1.886935,2.615232 0.671871,-2.94416 m -1.821426,2.66378 0.671872,-2.94416 m -2.357005,2.695314 0.671872,-2.944159 m 3.920203,2.90209 c -0.277982,0.34671 -0.614384,0.527505 -1.072548,0.3625 -0.300289,-0.11739 -0.590534,-0.247289 -0.882617,-0.374898 -0.662787,-0.314409 -1.281264,-0.4205 -1.915678,-0.601519 -0.292783,-0.07409 -0.46894,0.05874 -0.619068,0.237694 -0.147258,-0.06624 -0.299769,-0.113873 -0.463757,-0.120673 m 5.185858,-0.196108 c -0.111789,-0.548337 -0.448221,-0.853078 -0.999177,-0.925188 -1.171664,-0.187987 -1.875067,-0.208029 -2.69948,-0.454737 -0.344109,-0.04502 -0.41264,-0.240673 -0.48545,-0.395697 -0.184633,-0.04395 -0.450318,-0.113628 -0.559334,-0.146648"
     sodipodi:nodetypes="ccccccccccccccccccc"
     inkstitch:satin_column="True"
     inkstitch:zigzag_spacing_mm="0,28"
     inkstitch:center_walk_underlay="False" />
  <path
     style="display:inline;opacity:1;fill:none;stroke:#ffffff;stroke-width:0.264583;stroke-linecap:butt;stroke-linejoin:miter;stroke-miterlimit:4;stroke-dasharray:0.264583, 0.264583;stroke-dashoffset:0;stroke-opacity:1"
     d="m 62.54115,52.668402 -1.200976,-0.325543 c 0.104951,-2.89106 -0.2885,-5.967139 -2.463495,-8.667333 l 4.869073,-3.859905"
     id="path3647"
     sodipodi:nodetypes="cccc" />
  <path
     id="path2480"
     style="display:inline;opacity:1;fill:none;stroke:#ffffff;stroke-width:0.15;stroke-linecap:butt;stroke-linejoin:miter;stroke-miterlimit:4;stroke-dasharray:none;stroke-opacity:1"
     d="m 61.165774,43.731965 c 0,0 -1.998285,-2.505539 -1.998285,-2.505539 m 2.94075,1.821247 c 0,0 -1.998283,-2.50554 -1.998283,-2.50554 m 3.122999,1.632947 c 0,0 -1.998286,-2.50554 -1.998286,-2.50554 m 3.358361,1.602329 c 0,0 -1.998284,-2.50554 -1.998284,-2.50554 m 1.438934,1.338134 c 0.260351,0.788973 -0.374894,1.246563 -1.01927,1.509197 -0.956497,0.563495 -1.323359,0.916835 -1.922009,1.35942 -0.114871,0.161463 -0.258271,0.31181 -0.181421,0.547996 -0.260337,0.192925 -0.329127,0.296253 -0.354427,0.327593 m 3.004238,-4.35309 c -0.294225,-0.130596 -0.925302,-0.468128 -2.020119,1.011505 -0.430616,0.369804 -0.632762,0.604269 -1.477883,1.243092 -0.213523,0.112408 -0.387051,0.106243 -0.528149,0.0037 -0.125175,0.08182 -0.368607,0.126115 -0.428487,0.23779"
     sodipodi:nodetypes="cccccccccccccccccc"
     inkstitch:satin_column="True"
     inkstitch:zigzag_spacing_mm="0,28"
     inkstitch:center_walk_underlay="False" />
  <path
     style="display:inline;opacity:1;fill:none;stroke:#ffffff;stroke-width:0.264583;stroke-linecap:butt;stroke-linejoin:miter;stroke-miterlimit:4;stroke-dasharray:0.264583, 0.264583;stroke-dashoffset:0;stroke-opacity:1"
     d="M 59.085826,42.002434 58.07783,42.762593 C 55.973547,40.848282 53.501856,39.396052 49.974338,39.271709 V 33.119607"
     id="path3651"
     sodipodi:nodetypes="cccc" />
  <path
     id="path2407"
     style="display:inline;opacity:1;fill:none;stroke:#ffffff;stroke-width:0.15;stroke-linecap:butt;stroke-linejoin:miter;stroke-miterlimit:4;stroke-dasharray:none;stroke-opacity:1"
     d="m 50.797629,33.206115 h -1.638176 m 2.026415,4.560853 h -2.50607 m 2.377144,-0.979984 h -2.258661 m 2.394934,-1.680845 h -2.450822 m 2.51189,-1.14101 h -2.680378 m 1.593974,-0.907999 c 0.601168,0.227413 1.036023,0.4955 0.633918,2.281839 -0.103784,0.57259 -0.124154,1.238645 -0.126854,1.924593 0.04698,0.138573 0.04505,0.265104 0.284033,0.400986 -0.008,0.126362 0.01077,0.231229 0.05524,0.357591 m -1.249732,-4.957451 c -0.739703,0.157735 -1.219309,1.000522 -0.739596,2.139591 0.104443,0.776238 0.133303,1.368602 0.123603,1.986817 -0.02806,0.200654 -0.146,0.348853 -0.26657,0.411193 -0.0068,0.258099 -0.03733,0.304229 -0.08314,0.485108"
     sodipodi:nodetypes="cccccccccccccccccccc"
     inkstitch:satin_column="True"
     inkstitch:zigzag_spacing_mm="0,28"
     inkstitch:center_walk_underlay="False" />
  <path
     style="display:inline;opacity:1;fill:none;stroke:#ffffff;stroke-width:0.265;stroke-linecap:butt;stroke-linejoin:miter;stroke-miterlimit:4;stroke-dasharray:0.265, 0.265;stroke-dashoffset:0;stroke-opacity:1"
     d="m 48.821668,38.150307 -0.07838,1.278129 c -2.957295,0.214106 -5.774999,1.727258 -7.89613,4.146049 L 36.10545,39.909612"
     id="path2502"
     sodipodi:nodetypes="cccc" />
  <path
     id="path2410"
     style="display:inline;opacity:1;fill:none;stroke:#ffffff;stroke-width:0.15;stroke-linecap:butt;stroke-linejoin:miter;stroke-miterlimit:4;stroke-dasharray:none;stroke-opacity:1"
     d="m 35.585899,40.575407 1.021376,-1.280785 m 2.302402,4.427943 1.562495,-1.959336 m -2.248298,1.247533 1.408239,-1.765903 m -2.807349,0.824466 1.528049,-1.916141 m -2.458206,1.252485 1.671172,-2.095617 m -1.703723,0.680104 c -0.197019,0.611803 -0.258544,1.118936 1.388786,1.91831 0.512379,0.275859 1.045826,0.675207 1.583808,1.100774 0.07905,0.123128 0.179175,0.200512 0.136415,0.472075 0.103795,0.07251 0.277676,0.245067 0.319046,0.375255 m -3.170636,-4.177093 c 0.584516,-0.479981 1.542464,-0.32949 2.133936,0.755758 0.541772,0.565629 0.98691,0.957523 1.476301,1.335386 0.174372,0.10317 0.363774,0.10336 0.487687,0.04796 0.206044,0.155585 0.261132,0.160495 0.431112,0.237455"
     sodipodi:nodetypes="cccccccccccccccccccc"
     inkstitch:satin_column="True"
     inkstitch:zigzag_spacing_mm="0,28"
     inkstitch:center_walk_underlay="False" />
  <path
     style="font-variation-settings:normal;display:inline;opacity:1;vector-effect:none;fill:none;fill-opacity:1;stroke:#ffffff;stroke-width:0.264999;stroke-linecap:butt;stroke-linejoin:miter;stroke-miterlimit:4;stroke-dasharray:0.264999, 0.264999;stroke-dashoffset:0;stroke-opacity:1;stop-color:#000000;stop-opacity:1"
     d="m 39.431555,43.895023 1.393039,0.781389 c 6.605579,-8.653036 20.716078,-4.169328 19.871282,7.393126"
     id="path956"
     sodipodi:nodetypes="ccc" />
  <path
     id="path991"
     style="display:inline;opacity:1;fill:none;stroke:#ffffff;stroke-width:0.165;stroke-linecap:butt;stroke-linejoin:miter;stroke-miterlimit:4;stroke-dasharray:none;stroke-opacity:1"
     d="m 54.451054,52.740772 12.812242,4.681884 M 52.667101,54.87523 60.7691,65.759791 m -9.594844,-10.004912 3.45672,12.683009 M 48.749131,55.783133 45.455286,68.459799 m 1.89331,-13.53696 -7.573343,11.042404 m 5.853067,-13.106214 -12.402182,4.98002 m 12.45909,-6.606152 -14.338252,0.7849 M 45.619818,48.773279 33.699897,42.487907 m 12.951131,4.956822 -8.973124,-10.03504 m 11.233951,8.762849 -2.803258,-13.384699 m 4.476665,13.640782 1.934736,-13.98592 m 0.660131,14.627208 8.474926,-10.147787 m -7.976342,11.993136 11.98063,-6.917153 m -10.377085,9.339928 13.578451,0.673823 m -6.278594,0.743539 C 63.493074,47.671247 60.182845,39.032546 51.004292,38.03428 39.873898,37.650118 36.284655,47.707613 37.33094,52.598229 c 0.741247,6.959355 8.457926,13.393297 17.183381,10.215737 4.73119,-1.760851 7.602374,-5.840778 8.067458,-10.055909 M 60.06748,52.021975 c 0.584073,-5.588592 -3.588317,-10.631 -8.958402,-11.158715 -6.353141,-0.799553 -11.889292,4.246726 -11.473043,11.158715 0.779791,4.902724 3.548047,7.475775 6.967646,8.696462 7.517217,2.345637 13.234878,-3.707991 13.463781,-8.699562"
     inkstitch:satin_column="True"
     inkstitch:zigzag_spacing_mm="0,28"
     inkstitch:contour_underlay="True"
     sodipodi:nodetypes="cccccccccccccccccccccccccccccccccccccc"
     inkscape:label="circle" />
  <path
     id="path892"
     style="font-variation-settings:normal;display:inline;opacity:1;vector-effect:none;fill:none;fill-opacity:1;stroke:#ffffff;stroke-width:0.15;stroke-linecap:butt;stroke-linejoin:miter;stroke-miterlimit:4;stroke-dasharray:none;stroke-dashoffset:0;stroke-opacity:1;stop-color:#000000;stop-opacity:1"
     d="m 53.928887,49.784592 -0.949857,4.162316 m 4.243034,-3.382006 -0.949857,4.162316 m 3.595692,-3.633149 -0.949857,4.162316 m 0.625555,-0.824546 -5.238832,-0.890603 c -0.321366,0.03098 -0.61072,0.107203 -0.785092,0.345919 L 51.31863,52.126752 m 8.74885,-0.104777 -5.135919,-1.466795 c -0.319007,-0.163358 -0.375098,-0.338798 -0.45075,-0.513339 l -2.795463,0.56565"
     inkstitch:satin_column="True"
     inkstitch:zigzag_spacing_mm="0,28"
     inkstitch:contour_underlay="True" />
  <path
     id="path903"
     style="font-variation-settings:normal;display:inline;opacity:1;vector-effect:none;fill:none;fill-opacity:1;stroke:#ffffff;stroke-width:0.15;stroke-linecap:butt;stroke-linejoin:miter;stroke-miterlimit:4;stroke-dasharray:none;stroke-dashoffset:0;stroke-opacity:1;stop-color:#000000;stop-opacity:1"
     d="m 50.459987,47.99617 2.556051,3.204894 m 0.374902,-5.569134 2.556051,3.204894 m 0.08978,-5.321562 2.556051,3.204894 m 0.0078,-1.089557 -4.019052,3.67011 c -0.15075,0.206531 -0.173604,0.457288 -0.100743,0.741143 l -2.795466,0.565639 m 5.34361,-6.915261 -4.411639,3.094069 c -0.217364,0.07234 -0.442359,0.103892 -0.692086,0.0033 l -1.235263,2.560613"
     inkstitch:satin_column="True"
     inkstitch:zigzag_spacing_mm="0,28"
     inkstitch:contour_underlay="True" />
  <path
     id="path916"
     style="font-variation-settings:normal;display:inline;opacity:1;vector-effect:none;fill:none;fill-opacity:1;stroke:#ffffff;stroke-width:0.15;stroke-linecap:butt;stroke-linejoin:miter;stroke-miterlimit:4;stroke-dasharray:none;stroke-dashoffset:0;stroke-opacity:1;stop-color:#000000;stop-opacity:1"
     d="m 48.682994,49.15727 h 2.406899 m -3.271391,-1.913556 h 4.301649 m -4.160694,-1.652609 h 3.772852 M 48.27321,41.315737 h 3.163271 M 51.109078,40.86326 51.4263,46.21568 c 0.100125,0.328679 0.289787,0.471531 0.498946,0.573919 l -1.235276,2.560574 m -2.095532,-8.5393 -0.261943,5.238834 c -0.02421,0.369069 -0.204361,0.595162 -0.46895,0.743839 l 1.254776,2.556627"
     inkstitch:satin_column="True"
     inkstitch:zigzag_spacing_mm="0,28"
     inkstitch:contour_underlay="True" />
  <path
     id="path3836-1"
     style="font-variation-settings:normal;display:inline;opacity:1;vector-effect:none;fill:none;fill-opacity:1;stroke:#ffffff;stroke-width:0.15;stroke-linecap:butt;stroke-linejoin:miter;stroke-miterlimit:4;stroke-dasharray:none;stroke-dashoffset:0;stroke-opacity:1;stop-color:#000000"
     d="m 46.22914,50.622325 2.585661,-3.242366 m -5.477142,1.078515 2.585661,-3.242366 m -4.973529,1.469478 2.585661,-3.242366 m -0.862881,0.286764 4.368739,3.022073 c 0.282043,0.180004 0.556862,0.209304 0.822235,0.04149 l 1.254777,2.556625 m -7.982081,-3.7291 4.102569,3.596129 c 0.136537,0.159141 0.198351,0.363356 0.0775,0.767009 l 2.806634,0.623282"
     inkstitch:satin_column="True"
     inkstitch:zigzag_spacing_mm="0,28"
     inkstitch:contour_underlay="True" />
  <path
     id="path3876"
     style="font-variation-settings:normal;display:inline;opacity:1;vector-effect:none;fill:none;fill-opacity:1;stroke:#ffffff;stroke-width:0.15;stroke-linecap:butt;stroke-linejoin:miter;stroke-miterlimit:4;stroke-dasharray:none;stroke-dashoffset:0;stroke-opacity:1;stop-color:#000000;stop-opacity:1"
     d="M 48.430763,53.794027 47.4523,49.507395 m -3.784039,5.344966 -0.978463,-4.286632 m -1.667372,4.815799 -0.978463,-4.286632 m -0.407928,0.927079 5.259269,-1.522759 c 0.237065,-0.156159 0.355769,-0.331296 0.421005,-0.515006 l 2.806634,0.623281 m -7.85825,3.876736 5.186445,-0.890601 c 0.279509,0.02694 0.55516,0.07465 0.781545,0.387451 l 2.256977,-1.854325"
     inkstitch:satin_column="True"
     inkstitch:zigzag_spacing_mm="0,28"
     inkstitch:contour_underlay="True" />
  <path
     id="path3887"
     style="font-variation-settings:normal;display:inline;opacity:1;vector-effect:none;fill:none;fill-opacity:1;stroke:#ffffff;stroke-width:0.15;stroke-linecap:butt;stroke-linejoin:miter;stroke-miterlimit:4;stroke-dasharray:none;stroke-dashoffset:0;stroke-opacity:1;stop-color:#000000;stop-opacity:1"
     d="m 50.750946,55.160882 -4.775233,-2.2995 m 3.666319,4.753131 -4.775233,-2.2995 m 3.187732,5.474502 -4.775233,-2.2995 m 1.019296,1.128266 2.065155,-5.002614 c 0.01909,-0.299294 -0.05158,-0.473114 -0.131077,-0.634606 l 2.256988,-1.854309 m -1.885979,8.591685 2.567027,-4.662561 c 0.173286,-0.231412 0.397185,-0.279324 0.623576,-0.318199 l 0.109863,-2.929876"
     inkstitch:satin_column="True"
     inkstitch:zigzag_spacing_mm="0,28"
     inkstitch:contour_underlay="True" />
  <path
     id="path879"
     style="font-variation-settings:normal;display:inline;opacity:1;vector-effect:none;fill:none;fill-opacity:1;stroke:#ffffff;stroke-width:0.15;stroke-linecap:butt;stroke-linejoin:miter;stroke-miterlimit:4;stroke-dasharray:none;stroke-dashoffset:0;stroke-opacity:1;stop-color:#000000;stop-opacity:1"
     d="m 52.82937,51.965515 -4.058547,1.954642 m 5.66238,1.351016 -4.058547,1.954642 m 5.637882,1.618871 -4.058547,1.954642 m 1.198231,-0.0285 -2.51464,-4.557784 C 50.448315,55.854065 50.153787,55.715345 49.794286,55.73768 l 0.109861,-2.929876 m 5.500774,6.758093 -2.043146,-4.924502 c -0.06527,-0.30147 -0.001,-0.54878 0.159234,-0.755922 L 51.31863,52.126752"
     inkstitch:satin_column="True"
     inkstitch:zigzag_spacing_mm="0,28"
     inkstitch:contour_underlay="True" />
</svg>
